# xmcd
#
# Track frame offsets:
#        150
#        13359
#        27990
#        44432
#        57423
#        71102
#        84235
#        97390
#        112044
#        128420
#        141147
#        154705
#
# Disc length: 2237 seconds
#
# Revision: 0
# Processed by: cddbd v1.5.2PL0 Copyright (c) Steve Scherf et al.
# Submitted via: CDGFix 3.8
#
DISCID=a908bb0c
DTITLE=Various Artist - CB20220
DYEAR=2000
DGENRE=Karaoke
TTITLE0=Tubb, Ernest W/Vocal - Filipino Baby
TTITLE1=Tubb, Ernest W/Vocal - It's Been So Long Darling
TTITLE2=Tubb, Ernest W/Vocal - Soldier's Last Letter
TTITLE3=Tubb, Ernest W/Vocal - Have You Ever Been Lonely
TTITLE4=Tubb, Ernest W/Vocal - I Love You Because
TTITLE5=Tubb, Ernest W/Vocal - Walkin' The Floor Over You
TTITLE6=Tubb, Ernest - Filipino Baby
TTITLE7=Tubb, Ernest - It's Been So Long Darling
TTITLE8=Tubb, Ernest - Soldier's Last Letter
TTITLE9=Tubb, Ernest - Have You Ever Been Lonely
TTITLE10=Tubb, Ernest - I Love You Because
TTITLE11=Tubb, Ernest - Walkin' The Floor Over You
EXTD=This disc also has a catalog number of CB20500
EXTT0=
EXTT1=
EXTT2=
EXTT3=
EXTT4=
EXTT5=
EXTT6=
EXTT7=
EXTT8=
EXTT9=
EXTT10=
EXTT11=
PLAYORDER=
